<?xml version="1.0" standalone="no"?>
<!DOCTYPE svg PUBLIC "-//W3C//DTD SVG 20010904//EN"
 "http://www.w3.org/TR/2001/REC-SVG-20010904/DTD/svg10.dtd">
<svg version="1.0" xmlns="http://www.w3.org/2000/svg"
 width="16.000000pt" height="16.000000pt" viewBox="0 0 16.000000 16.000000"
 preserveAspectRatio="xMidYMid meet">
<metadata>
Created by potrace 1.11, written by Peter Selinger 2001-2013
</metadata>
<g transform="translate(0.000000,16.000000) scale(0.006154,-0.006154)"
fill="#000000" stroke="none">
<path d="M610 2127 l0 -83 99 1 c83 1 100 -2 103 -14 2 -9 3 -157 2 -328 l-1
-313 83 0 84 0 2 328 3 327 98 0 c80 -1 97 2 98 15 1 17 1 131 0 143 -1 4
-129 7 -286 7 l-285 0 0 -83z"/>
<path d="M1289 2205 c-6 -22 -4 -812 2 -820 8 -11 145 -12 155 -2 4 3 6 106 5
228 -1 123 0 221 3 218 2 -2 39 -49 81 -104 43 -55 80 -102 82 -105 5 -6 27
20 113 133 55 72 60 76 60 50 1 -15 0 -117 0 -225 l-1 -198 23 -1 c25 -1 128
-1 141 0 4 1 7 188 7 416 l0 415 -27 0 c-23 0 -38 -14 -78 -67 -27 -36 -55
-71 -60 -77 -6 -6 -47 -57 -92 -114 l-81 -102 -41 52 c-23 29 -52 67 -66 83
-13 17 -58 74 -101 128 -58 74 -82 97 -100 97 -13 0 -25 -2 -25 -5z"/>
<path d="M617 1234 c-5 -6 0 -805 6 -811 4 -3 74 -6 157 -5 210 1 306 33 391
130 133 151 130 421 -5 564 -92 97 -163 120 -379 123 -92 1 -168 1 -170 -1z
m344 -182 c146 -59 185 -281 70 -400 -46 -47 -104 -68 -186 -68 l-60 1 -1 242
-2 242 37 3 c43 4 106 -5 142 -20z"/>
<path d="M1419 1231 c-7 -36 -2 -804 5 -809 5 -3 89 -5 186 -5 153 1 183 3
221 20 98 44 151 122 151 224 0 60 -15 97 -55 141 -25 27 -25 27 -5 45 11 10
26 33 34 53 48 114 -2 262 -105 312 -43 21 -60 23 -238 24 -106 1 -194 -1
-194 -5z m308 -160 c43 -1 73 -34 73 -80 -1 -64 -18 -76 -124 -79 l-93 -4 -1
80 c-1 90 -1 89 78 85 19 0 49 -2 67 -2z m60 -355 c26 -30 29 -53 12 -90 -15
-33 -49 -44 -140 -45 l-77 -1 0 78 c1 42 2 80 4 83 2 3 42 5 91 4 81 -2 88 -4
110 -29z"/>
</g>
</svg>
